<?xml version="1.0" encoding="UTF-8"?>
<svg fill="#d9dfec" id="uuid-7e08002b-e4ba-4ea9-95e5-21228faf358f" data-name="Livello 1" xmlns="http://www.w3.org/2000/svg" viewBox="0 0 2678.48 595.28">
  <g>
    <g>
      <path d="M711.61,592.62v-100.23h36.2c5.85,0,10.86.6,15.03,1.81,4.18,1.2,7.59,2.92,10.23,5.14,2.65,2.23,4.58,4.89,5.78,8.01,1.21,3.1,1.81,6.51,1.81,10.23,0,3.52-.46,6.57-1.39,9.12-.93,2.55-2.13,4.69-3.61,6.4-1.48,1.72-3.18,3.06-5.09,4.03-1.9.97-3.87,1.65-5.91,2.03v.27c6.96,1.02,12.13,3.76,15.52,8.21,3.39,4.45,5.09,10.03,5.09,16.71,0,5.2-.82,9.61-2.44,13.22-1.63,3.63-3.89,6.55-6.75,8.77-2.88,2.23-6.33,3.83-10.38,4.8-4.03.97-8.42,1.46-13.15,1.46h-40.93ZM721.08,536.66h23.94c4.93,0,9.05-.41,12.39-1.25,3.34-.84,6.03-2.06,8.08-3.69,2.04-1.62,3.5-3.61,4.38-5.98.88-2.37,1.33-5.09,1.33-8.15s-.52-5.82-1.54-8.01c-1.02-2.18-2.64-3.94-4.87-5.28-2.22-1.35-5.12-2.32-8.7-2.93-3.57-.6-7.95-.89-13.15-.89h-21.85v36.18ZM721.08,584.56h24.09c5.19,0,9.72-.24,13.57-.7s7.02-1.42,9.54-2.85c2.5-1.44,4.38-3.48,5.63-6.12,1.26-2.65,1.88-6.15,1.88-10.51s-.69-7.55-2.08-10.09c-1.39-2.55-3.39-4.52-5.99-5.91-2.59-1.39-5.7-2.35-9.32-2.85-3.61-.51-7.66-.77-12.11-.77h-25.2v39.82Z"/>
      <path d="M821.72,592.62v-100.23h9.47v100.23h-9.47Z"/>
      <path d="M867.11,542.65c0-7.33,1-14.21,2.99-20.61,2.01-6.4,4.95-11.99,8.85-16.77,3.9-4.78,8.72-8.56,14.48-11.35,5.76-2.79,12.38-4.18,19.9-4.18s14.64,1.37,20.53,4.11c5.89,2.74,10.82,6.49,14.76,11.27,3.94,4.78,6.91,10.4,8.9,16.85,1.99,6.46,3,13.35,3,20.68s-1.01,14.04-3,20.39c-1.99,6.36-4.94,11.93-8.84,16.71-3.9,4.78-8.77,8.55-14.61,11.34-5.85,2.79-12.62,4.18-20.32,4.18s-14.48-1.39-20.32-4.18c-5.85-2.79-10.72-6.56-14.63-11.34-3.9-4.78-6.82-10.35-8.77-16.71s-2.92-13.15-2.92-20.39ZM913.88,587.2c6.49,0,12.09-1.22,16.78-3.69,4.68-2.46,8.53-5.72,11.56-9.81,3.01-4.08,5.23-8.81,6.67-14.2,1.44-5.38,2.16-11,2.16-16.85,0-6.97-.86-13.2-2.57-18.73-1.72-5.52-4.2-10.23-7.45-14.13-3.25-3.9-7.19-6.87-11.83-8.92-4.64-2.04-9.84-3.06-15.6-3.06-6.4,0-11.94,1.26-16.63,3.76s-8.54,5.82-11.56,9.95c-3.01,4.14-5.25,8.89-6.68,14.27-1.44,5.38-2.15,11-2.15,16.85s.71,11.6,2.15,16.98c1.44,5.38,3.67,10.12,6.68,14.2,3.01,4.09,6.87,7.34,11.56,9.75,4.69,2.41,10.32,3.61,16.91,3.61Z"/>
      <path d="M993.23,592.62v-100.23h9.47v92.16h53.73v8.07h-63.2Z"/>
      <path d="M1080.64,542.65c0-7.33,1-14.21,2.99-20.61,2.01-6.4,4.95-11.99,8.85-16.77,3.9-4.78,8.72-8.56,14.48-11.35,5.76-2.79,12.38-4.18,19.9-4.18s14.64,1.37,20.53,4.11c5.89,2.74,10.82,6.49,14.76,11.27,3.94,4.78,6.91,10.4,8.9,16.85,1.99,6.46,3,13.35,3,20.68s-1.01,14.04-3,20.39c-1.99,6.36-4.94,11.93-8.84,16.71-3.9,4.78-8.77,8.55-14.61,11.34-5.85,2.79-12.62,4.18-20.32,4.18s-14.48-1.39-20.32-4.18c-5.85-2.79-10.72-6.56-14.63-11.34-3.9-4.78-6.82-10.35-8.77-16.71-1.95-6.36-2.92-13.15-2.92-20.39ZM1127.42,587.2c6.49,0,12.09-1.22,16.78-3.69,4.68-2.46,8.53-5.72,11.56-9.81,3.01-4.08,5.23-8.81,6.67-14.2,1.44-5.38,2.16-11,2.16-16.85,0-6.97-.86-13.2-2.57-18.73-1.72-5.52-4.2-10.23-7.45-14.13-3.25-3.9-7.19-6.87-11.83-8.92-4.64-2.04-9.84-3.06-15.6-3.06-6.4,0-11.94,1.26-16.63,3.76-4.69,2.5-8.54,5.82-11.56,9.95-3.01,4.14-5.25,8.89-6.68,14.27-1.44,5.38-2.15,11-2.15,16.85s.71,11.6,2.15,16.98,3.67,10.12,6.68,14.2c3.01,4.09,6.87,7.34,11.56,9.75,4.69,2.41,10.32,3.61,16.91,3.61Z"/>
      <path d="M1249.36,548.92v-8.08h42.88v51.78h-8.08v-17.12c-1.76,2.97-3.77,5.69-6.05,8.15-2.28,2.46-4.89,4.54-7.86,6.26-2.98,1.71-6.41,3.04-10.31,3.97-3.9.93-8.3,1.39-13.22,1.39-6.31,0-12.16-1.12-17.54-3.34-5.39-2.23-10.03-5.55-13.92-9.96-3.9-4.41-6.94-9.95-9.12-16.63-2.19-6.68-3.27-14.48-3.27-23.39,0-7.33.93-14.17,2.79-20.53,1.86-6.36,4.71-11.88,8.56-16.56,3.85-4.69,8.68-8.38,14.48-11.07,5.8-2.7,12.64-4.04,20.53-4.04,5.29,0,10.23.66,14.83,1.95,4.59,1.3,8.72,3.27,12.38,5.92,3.67,2.64,6.75,5.94,9.27,9.88,2.5,3.94,4.32,8.61,5.43,13.99h-9.74c-.84-3.7-2.25-7.05-4.25-10.03-1.99-2.97-4.38-5.45-7.17-7.44s-5.89-3.52-9.32-4.6c-3.43-1.06-7.01-1.6-10.72-1.6-6.59,0-12.26,1.17-16.99,3.48-4.72,2.32-8.62,5.6-11.69,9.82-3.06,4.21-5.31,9.28-6.75,15.17s-2.15,12.37-2.15,19.42c0,5.57.8,10.86,2.44,15.87,1.62,5.01,3.99,9.43,7.1,13.22,3.1,3.81,6.91,6.82,11.41,9.05,4.5,2.23,9.63,3.34,15.38,3.34,2.7,0,5.47-.29,8.35-.91,2.88-.6,5.66-1.6,8.36-2.99,2.68-1.39,5.19-3.21,7.51-5.43,2.32-2.23,4.32-4.96,5.99-8.21,1.57-3.16,2.66-6.46,3.26-9.89s.95-7.05,1.04-10.85h-33.83Z"/>
      <path d="M1319.81,592.62l39.4-100.23h10.72l38.42,100.23h-9.74l-11.56-31.46h-45.66l-11.84,31.46h-9.74ZM1344.59,553.09h39.25l-19.63-52.61-19.62,52.61Z"/>
      <path d="M1497.86,505.2h-.28v87.42h-9.46v-100.23h10.72l57.91,87.56h.27v-87.56h9.47v100.23h-11l-57.63-87.42Z"/>
      <path d="M1602.96,492.4h9.46v59.71c0,12.44,2.32,21.4,6.97,26.87,4.63,5.47,12.11,8.21,22.41,8.21,5.38,0,9.96-.71,13.71-2.15,3.76-1.44,6.8-3.63,9.12-6.55,2.32-2.92,3.99-6.56,5.02-10.93,1.02-4.36,1.53-9.5,1.53-15.45v-59.71h9.46v62.5c0,13.08-3.22,23.09-9.67,30-6.45,6.92-16.17,10.38-29.16,10.38s-22.83-3.53-29.24-10.58c-6.4-7.06-9.6-16.98-9.6-29.79v-62.5Z"/>
      <path d="M1708.21,492.4h72.95v8.08h-31.74v92.15h-9.47v-92.15h-31.73v-8.08Z"/>
      <path d="M1817.9,547.11v45.52l-9.47-.14v-100.09h39.25c11.05,0,19.5,2.06,25.34,6.2,5.85,4.12,8.77,10.83,8.77,20.11,0,6.32-1.28,11.33-3.83,15.03-2.56,3.72-6.71,6.88-12.46,9.47,2.97,1.02,5.29,2.5,6.97,4.45,1.67,1.95,2.92,4.18,3.75,6.68.84,2.5,1.37,5.15,1.61,7.93.23,2.79.39,5.48.49,8.08.09,3.81.25,6.97.49,9.47.23,2.5.51,4.54.83,6.12.33,1.59.73,2.81,1.19,3.69s1.02,1.55,1.67,2.02v.84l-10.43.14c-1.03-1.67-1.74-3.99-2.16-6.96s-.74-6.08-.97-9.32c-.23-3.25-.42-6.41-.56-9.47s-.4-5.57-.77-7.52c-.56-2.68-1.46-4.85-2.71-6.47-1.26-1.62-2.76-2.85-4.53-3.69-1.76-.83-3.73-1.38-5.91-1.67-2.18-.28-4.43-.42-6.75-.42h-29.78ZM1847.41,539.03c3.52,0,6.8-.36,9.81-1.11,3.01-.74,5.64-1.93,7.86-3.55,2.23-1.63,3.99-3.69,5.29-6.2,1.3-2.5,1.95-5.52,1.95-9.05s-.67-6.77-2.02-9.19c-1.35-2.41-3.16-4.32-5.43-5.71-2.28-1.39-4.87-2.37-7.79-2.92-2.92-.56-5.97-.83-9.12-.83h-30.07v38.55h29.51Z"/>
      <path d="M1918.68,592.62v-100.23h9.47v100.23h-9.47Z"/>
      <path d="M1961.01,592.62v-7.93l64.18-84.22h-58.75v-8.08h70.44v7.93l-64.18,84.23h64.6v8.07h-76.29Z"/>
      <path d="M2070.28,592.62v-100.23h9.47v100.23h-9.47Z"/>
      <path d="M2115.66,542.65c0-7.33,1-14.21,2.99-20.61,2.01-6.4,4.95-11.99,8.85-16.77,3.9-4.78,8.72-8.56,14.48-11.35s12.38-4.18,19.9-4.18,14.64,1.37,20.53,4.11c5.89,2.74,10.82,6.49,14.76,11.27,3.94,4.78,6.91,10.4,8.9,16.85,1.99,6.46,3,13.35,3,20.68s-1.01,14.04-3,20.39c-1.99,6.36-4.94,11.93-8.84,16.71-3.9,4.78-8.77,8.55-14.61,11.34-5.85,2.79-12.62,4.18-20.32,4.18s-14.48-1.39-20.32-4.18c-5.85-2.79-10.72-6.56-14.63-11.34-3.9-4.78-6.82-10.35-8.77-16.71-1.95-6.36-2.92-13.15-2.92-20.39ZM2162.44,587.2c6.49,0,12.09-1.22,16.78-3.69,4.68-2.46,8.53-5.72,11.56-9.81,3.01-4.08,5.23-8.81,6.67-14.2,1.44-5.38,2.16-11,2.16-16.85,0-6.97-.86-13.2-2.57-18.73-1.72-5.52-4.2-10.23-7.45-14.13-3.25-3.9-7.19-6.87-11.83-8.92-4.64-2.04-9.84-3.06-15.6-3.06-6.4,0-11.94,1.26-16.63,3.76s-8.54,5.82-11.56,9.95c-3.01,4.14-5.25,8.89-6.68,14.27-1.44,5.38-2.15,11-2.15,16.85s.71,11.6,2.15,16.98c1.44,5.38,3.67,10.12,6.68,14.2,3.01,4.09,6.87,7.34,11.56,9.75,4.69,2.41,10.32,3.61,16.91,3.61Z"/>
      <path d="M2251.25,505.2h-.28v87.42h-9.46v-100.23h10.72l57.91,87.56h.27v-87.56h9.47v100.23h-11l-57.63-87.42Z"/>
      <path d="M2359.55,592.62v-100.23h9.47v100.23h-9.47Z"/>
      <path d="M2412.72,562.69c.37,4.46,1.37,8.24,3,11.35,1.62,3.1,3.7,5.63,6.26,7.58,2.55,1.96,5.49,3.38,8.84,4.25,3.34.88,6.91,1.33,10.72,1.33,4.45,0,8.3-.56,11.56-1.67,3.25-1.12,5.89-2.63,7.93-4.53s3.56-4.1,4.53-6.6c.97-2.52,1.46-5.15,1.46-7.94,0-3.9-.88-7.05-2.65-9.46-1.76-2.41-4.06-4.4-6.89-5.92-2.83-1.53-6.08-2.75-9.74-3.68-3.67-.93-7.43-1.84-11.28-2.72-3.85-.88-7.6-1.93-11.27-3.13-3.67-1.21-6.91-2.83-9.74-4.88-2.83-2.04-5.13-4.66-6.89-7.86-1.77-3.19-2.65-7.26-2.65-12.18,0-3.43.73-6.77,2.16-10.03,1.44-3.24,3.57-6.12,6.4-8.63,2.83-2.5,6.38-4.5,10.65-5.98,4.27-1.48,9.19-2.23,14.76-2.23s10.59.79,14.82,2.37c4.23,1.59,7.73,3.74,10.51,6.48,2.79,2.73,4.87,5.91,6.26,9.53,1.39,3.63,2.08,7.48,2.08,11.56h-9.04c0-3.8-.68-7.09-2.03-9.88-1.34-2.79-3.17-5.06-5.49-6.82-2.32-1.77-4.96-3.07-7.93-3.9-2.98-.84-6.04-1.26-9.19-1.26-4.83,0-8.89.68-12.19,2.02-3.3,1.35-5.91,3.09-7.86,5.22-1.95,2.14-3.3,4.51-4.03,7.1-.75,2.59-.88,5.2-.42,7.79.56,3.25,1.86,5.85,3.9,7.79,2.04,1.95,4.54,3.55,7.51,4.8,2.98,1.26,6.24,2.28,9.82,3.06,3.57.79,7.22,1.63,10.92,2.5,3.72.88,7.32,1.94,10.8,3.14,3.48,1.21,6.56,2.83,9.26,4.87,2.68,2.04,4.85,4.67,6.47,7.86,1.62,3.21,2.44,7.22,2.44,12.04,0,9.29-3.19,16.47-9.61,21.58-6.4,5.1-15.41,7.66-27,7.66-5.2,0-10.03-.68-14.48-2.02-4.46-1.35-8.32-3.39-11.56-6.13-3.25-2.74-5.78-6.13-7.59-10.16-1.81-4.04-2.72-8.79-2.72-14.27h9.19Z"/>
      <path d="M2498.77,492.4h72.95v8.08h-31.74v92.15h-9.47v-92.15h-31.73v-8.08Z"/>
      <path d="M2589.94,592.62l39.4-100.23h10.72l38.42,100.23h-9.74l-11.56-31.46h-45.66l-11.84,31.46h-9.74ZM2614.73,553.09h39.25l-19.63-52.61-19.62,52.61Z"/>
    </g>
    <g>
      <g>
        <path d="M2205.95,110.85c-4.87,8.34-14.29,16.18-27.77,16.18-19,0-31.19-15.69-31.19-37.15,0-23.23,14.62-44.06,42.39-44.06,6.33,0,11.86,1.12,16.4,2.88v-19.06c0-10.58-3.41-16.67-7.31-20.83v-.32l23.55-8.49v90.51c0,21.95,1.95,25.8,7.47,30.6v.32l-23.06,5.14v-15.71h-.49ZM2205.79,107.67v-41.17c-2.92-13.62-11.04-17.79-18.52-17.79-14.29,0-23.23,14.9-23.23,35.71,0,19.23,7.47,31.9,22.58,31.9,8.45,0,14.78-3.53,19.17-8.65Z"/>
        <path d="M2238.25,86.51c.16-21.46,19-40.69,41.58-40.69s41.74,19.23,41.74,40.69-18.84,40.52-41.74,40.52-41.74-18.9-41.58-40.52ZM2303.71,86.51c0-19.23-7.31-37.48-23.88-37.48s-23.71,18.25-23.71,37.48,6.98,37.34,23.71,37.34,23.88-17.95,23.88-37.34Z"/>
        <path d="M2337.31,107.67v-56.56h-8.77v-.95l23.55-20.02h1.62v18.09h20.95v2.88h-20.95v56.08c0,7.69,3.57,11.86,11.37,11.86,5.68,0,9.91-2.25,10.72-2.72l.49.63c-4.55,6.25-11.69,10.09-20.79,10.09-9.58,0-18.19-4.32-18.19-19.37Z"/>
        <path d="M2390.24,107.67v-56.56h-8.77v-.95l23.55-20.02h1.62v18.09h20.95v2.88h-20.95v56.08c0,7.69,3.57,11.86,11.37,11.86,5.68,0,9.91-2.25,10.72-2.72l.49.63c-4.55,6.25-11.69,10.09-20.79,10.09-9.58,0-18.19-4.32-18.19-19.37Z"/>
        <path d="M2441.38,114.71c0-6.09,4.87-10.9,10.88-10.9s10.88,4.81,10.88,10.9c0,5.77-5.04,10.72-10.88,10.72s-10.88-4.95-10.88-10.72Z"/>
        <path d="M2529.25,66.49l-.97.3c-8.28-13.93-17.54-18.09-25.18-18.09-8.45,0-13.32,5.28-13.32,11.86,0,9.28,10.23,12.81,20.95,17.3,11.37,4.81,23.06,10.74,23.06,26.11s-13.48,23.06-30.37,23.06c-8.45,0-17.05-1.75-23.88-4.16l-1.62-20.51.97-.32c8.12,15.55,16.4,22.11,26.64,22.11,10.88,0,14.94-7.21,14.94-13.77,0-8.34-6.33-12.18-17.22-16.83-10.88-4.65-24.04-9.93-24.04-25.95s13.97-21.78,28.26-21.78c7.8,0,15.75,1.6,20.14,3.21l1.62,17.46Z"/>
        <path d="M2594.04,66.49l-.97.3c-8.28-13.93-17.54-18.09-25.18-18.09-8.45,0-13.32,5.28-13.32,11.86,0,9.28,10.23,12.81,20.95,17.3,11.37,4.81,23.06,10.74,23.06,26.11s-13.48,23.06-30.37,23.06c-8.45,0-17.05-1.75-23.88-4.16l-1.62-20.51.97-.32c8.12,15.55,16.4,22.11,26.64,22.11,10.88,0,14.94-7.21,14.94-13.77,0-8.34-6.33-12.18-17.22-16.83-10.88-4.65-24.04-9.93-24.04-25.95s13.97-21.78,28.26-21.78c7.8,0,15.75,1.6,20.14,3.21l1.62,17.46Z"/>
        <path d="M2647.94,116.48c-5.04,5.6-13.16,10.56-23.39,10.56-9.58,0-17.38-4.49-17.38-13.6,0-16.18,23.39-24.04,40.44-26.76v-17.46c0-8.32-3.41-13.79-14.94-13.79-6.17,0-14.62,1.6-21.6,7.21l-.81-.95c6.66-9.3,18.19-15.86,32.32-15.86,16.4,0,21.28,9.14,21.28,19.06v45.66c0,4,1.62,7.05,6.33,7.05,2.44,0,5.04-.81,7.96-3.05l.32.32c-2.44,5.12-7.31,11.69-17.05,11.69-8.12,0-12.34-4.65-13.48-10.09ZM2647.62,113.74v-24.34c-12.83,2.88-25.18,8.16-25.18,18.74,0,6.25,4.22,10.25,11.86,10.25,5.52,0,10.56-2.07,13.32-4.65Z"/>
      </g>
      <g>
        <path d="M812.99,390.01c-61.77,0-101.38-42.9-101.38-97.93s40.14-97.93,105.81-97.93c29.97,0,52.38,7.69,66.72,12.31l5.21,41.93-2.35.75c-24.76-35.48-44.04-49.84-71.93-49.84-47.95,0-70.37,40.85-70.37,93.04s19.81,92.55,68.28,92.55c28.41,0,47.95-13.91,47.95-40.88,0-18.5-2.61-27.5-11.99-42.68v-.52h51.08v.52c-8.6,15.93-10.42,24.69-10.42,46.03v15.41c-12.25,8.47-34.66,27.23-76.62,27.23Z"/>
        <path d="M921.11,386.16v-.52c4.95-14.14,5.99-26.71,5.99-49.35v-30.33c0-16.97-5.47-26.49-11.73-33.42v-.49l36.75-13.65v31.37h1.04c10.42-12.09,24.5-30.33,41.44-30.07l-.52,31.34h-1.04c-4.95-3.84-17.46-7.69-23.2-7.69-4.17,0-10.95,3.84-16.68,11.56v41.11c0,22.38.52,35.48,5.73,49.62v.52h-37.79Z"/>
        <path d="M1065.72,390.01c-34.92,0-58.64-27.23-58.64-62.97,0-41.37,31.53-67.34,60.2-67.34,30.49,0,51.34,27.5,49.78,50.1h-83.66v4.89c0,36.26,18.24,53.49,45.61,53.49,15.9,0,27.89-6.19,36.75-17.23l1.56,1.04c-6.78,21.08-24.5,38.02-51.6,38.02ZM1033.93,305.7l56.55-1.27v-2.83c0-25.44-8.08-37.27-24.24-37.27-19.81,0-30.23,17.98-32.32,41.37Z"/>
        <path d="M1142.57,358.93v-90.76h-14.07v-1.53l37.79-32.12h2.61v29.03h33.62v4.63h-33.62v89.98c0,12.35,5.73,19.03,18.24,19.03,9.12,0,15.9-3.62,17.2-4.37l.78,1.01c-7.3,10.03-18.76,16.19-33.36,16.19-15.38,0-29.19-6.94-29.19-31.08Z"/>
        <path d="M1281.45,373.07c-8.08,8.99-21.11,16.94-37.53,16.94-15.38,0-27.89-7.2-27.89-21.83,0-25.96,37.53-38.57,64.89-42.94v-28.02c0-13.36-5.47-22.12-23.98-22.12-9.9,0-23.46,2.57-34.66,11.56l-1.3-1.53c10.69-14.92,29.19-25.44,51.86-25.44,26.32,0,34.14,14.66,34.14,30.59v73.27c0,6.42,2.61,11.3,10.16,11.3,3.91,0,8.08-1.3,12.77-4.89l.52.52c-3.91,8.21-11.73,18.76-27.36,18.76-13.03,0-19.81-7.46-21.63-16.19ZM1280.93,368.67v-39.06c-20.59,4.63-40.4,13.1-40.4,30.07,0,10.03,6.78,16.45,19.03,16.45,8.86,0,16.94-3.32,21.37-7.46Z"/>
        <path d="M1380.89,390.81c8.74-16.69,10.92-26.11,10.92-48.2v-99.67c0-22.36-2.18-31.51-10.92-48.2v-.55h64.45c59.53,0,77.28,25.6,77.28,54.41,0,35.81-28.13,61.96-81.38,61.96h-18.02v32.05c0,22.36,1.91,31.51,10.92,48.2v.55h-53.25v-.55ZM1423.22,200.13v105.03h16.93c36.32,0,50.79-27.21,50.79-56.02,0-39.05-22.39-49.56-50.25-49.56-3.82,0-8.74,0-17.48.55Z"/>
        <path d="M1546.84,385.64c3.65-14.14,5.99-26.97,5.99-49.35v-29.29c0-16.45-5.47-26.22-11.73-33.16v-1.79l37.79-13.65v77.63c0,22.12.52,35.48,5.73,49.62v.52h-37.79v-.52ZM1564.56,232.43c-8.6,0-15.64-6.94-15.64-15.41s7.04-15.67,15.64-15.67,15.64,7.2,15.64,15.67-7.04,15.41-15.64,15.41Z"/>
        <path d="M1669.33,373.07c-8.08,8.99-21.11,16.94-37.53,16.94-15.38,0-27.89-7.2-27.89-21.83,0-25.96,37.53-38.57,64.89-42.94v-28.02c0-13.36-5.47-22.12-23.98-22.12-9.9,0-23.46,2.57-34.66,11.56l-1.3-1.53c10.69-14.92,29.19-25.44,51.86-25.44,26.32,0,34.14,14.66,34.14,30.59v73.27c0,6.42,2.61,11.3,10.16,11.3,3.91,0,8.08-1.3,12.77-4.89l.52.52c-3.91,8.21-11.73,18.76-27.36,18.76-13.03,0-19.81-7.46-21.63-16.19ZM1668.81,368.67v-39.06c-20.59,4.63-40.4,13.1-40.4,30.07,0,10.03,6.78,16.45,19.03,16.45,8.86,0,16.94-3.32,21.37-7.46Z"/>
        <path d="M1770.68,386.16h-37.79v-.52c4.95-14.14,5.99-26.71,5.99-49.35v-30.33c0-16.97-5.47-26.49-11.73-33.42v-.49l36.75-13.65v24.69l1.04.26c11.21-13.39,23.72-23.65,41.96-23.65,23.72,0,36.75,14.4,36.75,37.27v39.06c0,23.13.52,35.48,5.99,49.62v.52h-37.79v-.52c4.69-14.14,5.73-27.76,5.73-49.35v-33.42c0-14.63-6.52-27.5-23.98-27.5-10.95,0-21.11,4.89-28.67,12.87v47.79c0,22.38.52,35.48,5.73,49.62v.52Z"/>
        <path d="M1926.76,390.01c-34.92,0-58.64-27.23-58.64-62.97,0-41.37,31.53-67.34,60.2-67.34,30.49,0,51.34,27.5,49.78,50.1h-83.66v4.89c0,36.26,18.24,53.49,45.61,53.49,15.9,0,27.89-6.19,36.75-17.23l1.56,1.04c-6.78,21.08-24.5,38.02-51.6,38.02ZM1894.96,305.7l56.55-1.27v-2.83c0-25.44-8.08-37.27-24.24-37.27-19.81,0-30.23,17.98-32.32,41.37Z"/>
        <path d="M2044,443.99c-32.84,0-57.08-10.78-57.08-29.29,0-13.13,12.25-20.82,24.76-23.91-8.86-3.36-14.86-9.51-14.86-20.04,0-15.96,13.55-24.43,27.36-28.05-16.16-7.17-27.36-21.83-27.36-39.06,0-24.92,21.89-43.95,49.26-43.95,13.55,0,26.06,4.89,34.92,12.84l33.1-19.03.52.26v22.9h-1.04l-28.93-.52c7.04,7.46,11.21,16.97,11.21,27.5,0,23.91-22.15,43.72-49.52,43.72-6.78,0-13.03-1.3-18.76-3.36-8.6,4.1-11.47,9.25-11.47,14.14,0,9.51,10.16,12.09,26.06,12.61l26.06.75c23.98.78,45.61,10.29,44.83,31.63-.78,21.83-24.24,40.85-69.06,40.85ZM2098.21,413.17c0-12.61-14.33-16.45-31.8-16.97l-28.15-1.04c-8.08-.26-15.9-1.01-22.67-3.09-3.39,3.09-6.52,8.24-6.52,15.7,0,17.2,16.16,27.23,45.61,27.23s43.52-9.25,43.52-21.83ZM2069.8,303.64c0-22.61-6.25-39.32-23.72-39.32s-23.2,16.71-23.2,39.32,6.52,39.06,23.46,39.06,23.46-16.68,23.46-39.06Z"/>
        <path d="M2126.85,324.98c.26-34.43,30.49-65.28,66.72-65.28s66.98,30.85,66.98,65.28-30.23,65.02-66.98,65.02-66.98-30.33-66.72-65.02ZM2231.87,324.98c0-30.85-11.73-60.14-38.31-60.14s-38.05,29.29-38.05,60.14,11.21,59.91,38.05,59.91,38.31-28.8,38.31-59.91Z"/>
        <path d="M2318.11,386.16h-37.79v-.52c4.95-14.14,5.99-26.71,5.99-49.35v-30.33c0-16.97-5.47-26.49-11.73-33.42v-.49l36.75-13.65v24.69l1.04.26c11.21-13.39,23.72-23.65,41.96-23.65,23.72,0,36.75,14.4,36.75,37.27v39.06c0,23.13.52,35.48,5.99,49.62v.52h-37.79v-.52c4.69-14.14,5.73-27.76,5.73-49.35v-33.42c0-14.63-6.52-27.5-23.98-27.5-10.95,0-21.11,4.89-28.67,12.87v47.79c0,22.38.52,35.48,5.73,49.62v.52Z"/>
        <path d="M2511.45,364.04c-7.82,13.39-22.93,25.96-44.57,25.96-30.49,0-50.04-25.18-50.04-59.62,0-37.27,23.46-70.69,68.02-70.69,10.16,0,19.03,1.79,26.32,4.63v-30.59c0-16.97-5.47-26.75-11.73-33.42v-.52l37.79-13.62v145.23c0,35.22,3.13,41.41,11.99,49.09v.52l-37.01,8.24v-25.21h-.78ZM2511.19,358.93v-66.07c-4.69-21.86-17.72-28.54-29.71-28.54-22.93,0-37.27,23.91-37.27,57.3,0,30.85,11.99,51.18,36.23,51.18,13.55,0,23.72-5.67,30.75-13.88Z"/>
        <path d="M2629.48,373.07c-8.08,8.99-21.11,16.94-37.53,16.94-15.38,0-27.89-7.2-27.89-21.83,0-25.96,37.53-38.57,64.89-42.94v-28.02c0-13.36-5.47-22.12-23.98-22.12-9.9,0-23.46,2.57-34.66,11.56l-1.3-1.53c10.69-14.92,29.19-25.44,51.86-25.44,26.32,0,34.14,14.66,34.14,30.59v73.27c0,6.42,2.61,11.3,10.16,11.3,3.91,0,8.08-1.3,12.77-4.89l.52.52c-3.91,8.21-11.73,18.76-27.36,18.76-13.03,0-19.81-7.46-21.63-16.19ZM2628.96,368.67v-39.06c-20.59,4.63-40.4,13.1-40.4,30.07,0,10.03,6.78,16.45,19.03,16.45,8.86,0,16.94-3.32,21.37-7.46Z"/>
      </g>
    </g>
  </g>
  <g>
    <path d="M153.35,382.64v.05l-.05-.05h.05Z"/>
    <path d="M153.35,382.64v.05l-.05-.05h.05Z"/>
    <path d="M153.35,382.64v.05l-.05-.05h.05Z"/>
    <path d="M554.3,295.81c-1.33-3.2-2.65-6.45-3.98-9.78-3.57-8.92-4.89-19.25-6.22-29.26-.41-3.2-.87-6.36-1.28-9.51l-7.22-46.18c-3.38-21.95-10.61-42.84-17.7-62.32-7.54-20.76-20.39-40.74-38.18-59.44-.87-1.05-21.95-25.33-52.22-35.48-1.14-.41-2.29-.59-3.29-.59-2.42,0-4.44,1.1-5.81,3.15-2.79,4.21-2.19,11.89-.69,18.88.32,1.46.69,2.83,1.01,4.16.05.23.09.41.18.69.05.41.14.87.23.87.18,1.05.46,1.74.55,1.83,11.43,40.83,25.56,75.95,43.12,107.36l16.87,30.18c2.7,4.76,5.81,9.33,8.82,13.72,1.37,2.01,2.7,3.93,4.02,5.9l9.83,14.63c8.46,12.62,18.06,26.89,25.29,43.07l1.1,2.42c18.56,41.43,33.2,74.16,7,114.45-16.69,25.83-60.68,41.29-73.71,45.4-37.54,11.89-59.76,23.27-95.88,42.39l-30.54,16.28-41.75,24.37-37.95,19.34-.14.09-16.28,7.36c-15.45,5.26-28.9,7.68-41.93,7.68-4.71,0-9.56-.32-14.22-1.01-25.01-3.57-53.73-16.28-69.96-30.91l-8.05-7.22c-12.62-11.39-14.68-13.72-24.28-26.98-9.46-12.89-18.34-25.06-24.83-40.05-9.56-22.08-20.8-51.67-22.91-84.82-2.06-32.97-2.47-49.38,1.78-79.38l3.7-26.38c.5-3.75,1.51-7.82,2.47-11.71l1.01-4.16,5.58-24.69,5.4-18.7c15.13-52.81,31.64-88.2,55.14-118.2,18.2-23.23,49.56-41.93,62.18-48.83,13.53-7.41,24.74-12.85,34.89-16.92,0,0,.09-.05.27-.09.09-.05.27-.09.46-.14,3.34-.91,17.88-4.48,33.15.5.78.23,1.55.5,2.38.82.09.05.14.05.23.09,6.13,2.42,12.85,6.4,19.39,13.26,11.25,11.84,9.78,47.46,2.93,63.6-13.12,30.73-23.04,39.6-33.74,47.28-17.33,12.62-30.91,15.23-41.79,17.33-2.65.5-5.12.96-7.45,1.55-8.55,2.06-16.51,3.52-23.5,4.76-24.78,4.44-42.66,7.68-52.22,34.57-11.66,32.97-27.75,75.67-31.64,85.09-.55,1.23-1.83,3.52-3.43,6.49-9.69,17.6-32.33,58.85-19.84,98.12,12.57,39.28,38.36,67.17,81.07,87.79,36.31,17.42,77.77,24.32,91.17,25.37,6.89.54,12.9.99,14.55.99,50.98,0,97.62-16.02,121.22-30.6,7.91-4.94,18.24-11.16,24.14-14.4,27.34-15.13,68.68-37.95,62.05-81.53-6.49-43.39-50.57-92.87-65.61-108.32-.46-.5-.87-1.01-1.28-1.37l-1.01-1.05c-.46-.41-.78-.78-1.23-1.19v-.09l-1.05-.91-.78-.87h-.14c-11.39-10.47-29.86-23.14-42.48-26.7-8.87-2.65-17.06-4.16-24.92-4.57-3.57-.18-7.09-.27-10.65-.27-16.19,0-31.92,2.19-46.78,6.58-27.39,8.18-51.71,17.06-74.35,27.02-1.37.5-34.34,12.99-44.72,43.07-5.58,16.19-6.11,37.42,3.45,56.53,2.83,6.45,21.64,53.16,45.87,53.16,3.38,0,6.63-1.05,9.56-3.2,9.1-6.63,32.34-6.04,45.92-11.62,21.49-8.82,40.1-16.46,43.35-28.17,1.05-3.98.32-8-2.19-11.93-12.12-19.02-19.16-28.94-35.44-28.94-6.81,0-15.18,1.69-27.94,5.58-7.18,2.19-13.53,3.29-18.88,3.29-15.36,0-20.3-8.73-23.41-18.24-1.01-7.45-.41-14.63,2.01-21.35,4.76-13.99,30.22-22.36,39.64-24.37,2.56-.64,5.3-.87,8.18-.87,9.56,0,19.62,3.06,30.27,6.31,7.91,2.42,16.09,4.89,24.46,6.26l32.83,5.35c7,1.14,13.9,1.33,19.07,1.33,2.47,0,4.85-.05,7.22-.05,2.33-.09,4.66-.14,6.95-.14,3.2,0,6.42-.02,9.67.14,18.17.9,33.97,13.74,37.69,31.54.04.17.07.34.1.51.09.5.18,1.01.27,2.1.09.55.18,1.1.23,1.97l.32,2.19c4.44,37.72-3.84,65.34-12.71,80.84-18.29,31.73-60.95,65.57-125.88,65.57-5.44,0-11.07-.27-16.64-.78-76.27-6.4-130.18-51.44-139.14-115.36-8.18-57.89-2.06-68.04,27.39-116.55,3.61-5.94,7.59-12.57,11.93-19.84,25.97-43.58,90.67-57.29,137.95-67.26,23.96-5.03,42.84-9.01,50.53-15.77,8.69-7.68,13.08-18.2,13.12-31.23.09-36.63-34.57-82.9-53.18-99.54-17.56-15.82-38.09-23.82-60.9-23.82-21.58,0-37.13,7.32-37.72,7.64l-36.63,17.38c-10.06,4.76-19.62,10.65-28.9,16.28-3.38,2.1-6.81,4.16-10.29,6.22-18.88,11.11-35.48,23.87-54.69,39.69-20.44,16.92-38.23,40.83-46.32,62.41C.12,171.21-1.57,189.87,1.4,213.37c4.66,35.66,7.86,69.36,9.69,102.93l2.33,43.71c2.06,37.27,4.85,70.74,18.11,101.74,4.3,10.1,8.28,19.11,13.26,27.3,20.62,33.65,50.02,64.33,76.73,80.02l2.61,1.6c6.17,3.57,11.93,7,19.16,9.37l21.54,6.86c10.56,3.52,49.47,5.08,59.81,5.08l28.9-.14c22.72-.05,47.05-.41,72.47-4.3,60.13-9.05,114.72-38.09,158.02-83.86,21.35-22.54,47-54.69,63.83-79.97l1.14-1.65c7.59-11.43,15.55-23.27,18.66-37.4,8.23-36.76-1.78-60.9-13.35-88.84ZM153.35,382.68l-.05-.05h.05v.05Z"/>
    <path d="M153.35,382.64v.05l-.05-.05h.05Z"/>
    <path d="M153.35,382.64v.05l-.05-.05h.05Z"/>
  </g>
</svg>