<?xml version="1.0" encoding="UTF-8"?>
<svg id="uuid-d2074e41-8d06-4274-aa3f-7f14a3354753" data-name="Livello 1" xmlns="http://www.w3.org/2000/svg" viewBox="0 0 577.09 595.28">
  <defs>
    <style>
      .uuid-76f3b813-acc6-4dc9-a915-e36cc6ee10d7 {
        fill: currentColor;
      }
    </style>
  </defs>
  <path class="uuid-76f3b813-acc6-4dc9-a915-e36cc6ee10d7" d="M155.07,383.6v.05l-.05-.05h.05Z"/>
  <path class="uuid-76f3b813-acc6-4dc9-a915-e36cc6ee10d7" d="M155.07,383.6v.05l-.05-.05h.05Z"/>
  <path class="uuid-76f3b813-acc6-4dc9-a915-e36cc6ee10d7" d="M155.07,383.6v.05l-.05-.05h.05Z"/>
  <path class="uuid-76f3b813-acc6-4dc9-a915-e36cc6ee10d7" d="M560.54,295.79c-1.34-3.24-2.68-6.52-4.02-9.89-3.61-9.02-4.95-19.47-6.29-29.59-.42-3.24-.88-6.43-1.29-9.62l-7.31-46.7c-3.42-22.19-10.73-43.33-17.89-63.02-7.63-20.99-20.62-41.2-38.61-60.11-.88-1.06-22.19-25.62-52.8-35.88-1.16-.42-2.31-.6-3.33-.6-2.45,0-4.49,1.11-5.87,3.19-2.82,4.25-2.22,12.02-.69,19.1.32,1.48.69,2.87,1.02,4.21.05.23.09.42.18.69.05.42.14.88.23.88.19,1.06.46,1.76.56,1.85,11.56,41.29,25.85,76.8,43.6,108.57l17.06,30.52c2.73,4.81,5.87,9.43,8.92,13.87,1.39,2.03,2.73,3.98,4.07,5.96l9.94,14.8c8.55,12.76,18.26,27.19,25.57,43.56l1.11,2.45c18.77,41.89,33.57,75,7.07,115.74-16.88,26.12-61.36,41.75-74.54,45.91-37.96,12.02-60.43,23.54-96.96,42.86l-30.89,16.46-42.22,24.64-38.38,19.56-.14.09-16.46,7.44c-15.63,5.32-29.22,7.77-42.4,7.77-4.76,0-9.66-.32-14.38-1.02-25.29-3.61-54.33-16.46-70.75-31.26l-8.14-7.31c-12.76-11.51-14.84-13.87-24.55-27.28-9.57-13.04-18.54-25.34-25.11-40.51-9.66-22.33-21.04-52.25-23.17-85.77-2.08-33.34-2.5-49.94,1.8-80.27l3.75-26.68c.51-3.79,1.53-7.91,2.5-11.84l1.02-4.21,5.64-24.97,5.46-18.91c15.3-53.41,32-89.19,55.76-119.53,18.4-23.49,50.12-42.4,62.88-49.38,13.69-7.49,25.02-12.99,35.28-17.11,0,0,.09-.05.28-.09.09-.05.28-.09.46-.14,3.38-.92,18.08-4.53,33.52.51.79.23,1.57.51,2.4.83.09.05.14.05.23.09,6.2,2.45,12.99,6.47,19.61,13.41,11.37,11.98,9.89,48,2.96,64.32-13.27,31.07-23.3,40.04-34.12,47.81-17.52,12.76-31.26,15.4-42.26,17.52-2.68.51-5.18.97-7.54,1.57-8.65,2.08-16.69,3.56-23.77,4.81-25.06,4.49-43.14,7.77-52.8,34.96-11.79,33.34-28.07,76.52-32,86.05-.55,1.25-1.85,3.56-3.47,6.57-9.8,17.8-32.69,59.51-20.07,99.23,12.72,39.72,38.79,67.92,81.98,88.78,36.71,17.62,78.64,24.6,92.19,25.65,6.97.54,13.04,1,14.71,1,51.56,0,98.72-16.2,122.58-30.95,8-4.99,18.45-11.28,24.41-14.57,27.65-15.3,69.45-38.38,62.75-82.44-6.57-43.88-51.14-93.91-66.35-109.54-.46-.51-.88-1.02-1.29-1.39l-1.02-1.06c-.46-.42-.79-.79-1.25-1.2v-.09l-1.06-.92-.79-.88h-.14c-11.51-10.59-30.19-23.4-42.96-27-8.97-2.68-17.25-4.21-25.2-4.62-3.61-.18-7.17-.28-10.77-.28-16.37,0-32.27,2.22-47.3,6.66-27.7,8.28-52.3,17.25-75.18,27.33-1.39.51-34.73,13.13-45.22,43.56-5.64,16.37-6.18,37.84,3.49,57.17,2.87,6.52,21.88,53.76,46.39,53.76,3.42,0,6.7-1.06,9.66-3.24,9.2-6.7,32.7-6.1,46.44-11.75,21.73-8.92,40.55-16.65,43.83-28.48,1.06-4.02.32-8.09-2.22-12.07-12.25-19.24-19.37-29.27-35.83-29.27-6.89,0-15.35,1.71-28.25,5.64-7.26,2.22-13.69,3.33-19.1,3.33-15.54,0-20.53-8.83-23.67-18.45-1.02-7.54-.42-14.8,2.03-21.59,4.81-14.15,30.56-22.61,40.09-24.65,2.59-.65,5.36-.88,8.28-.88,9.66,0,19.84,3.1,30.61,6.38,8,2.45,16.28,4.95,24.74,6.33l33.2,5.41c7.07,1.16,14.06,1.34,19.28,1.34,2.5,0,4.9-.05,7.31-.05,2.36-.09,4.72-.14,7.03-.14,3.24,0,6.49-.02,9.78.14,18.37.91,34.36,13.89,38.11,31.9.04.17.07.34.1.52.09.51.18,1.02.28,2.13.09.55.18,1.11.23,1.99l.32,2.22c4.49,38.15-3.88,66.07-12.85,81.75-18.5,32.09-61.64,66.31-127.29,66.31-5.5,0-11.19-.28-16.83-.79-77.13-6.47-131.64-52.02-140.7-116.66-8.28-58.54-2.08-68.8,27.7-117.86,3.65-6.01,7.68-12.72,12.07-20.07,26.26-44.07,91.69-57.94,139.5-68.02,24.23-5.09,43.33-9.11,51.09-15.95,8.79-7.77,13.22-18.4,13.27-31.58.09-37.04-34.96-83.83-53.78-100.66C267.85,8.09,247.09,0,224.01,0c-21.82,0-37.55,7.4-38.15,7.72l-37.04,17.57c-10.17,4.81-19.84,10.77-29.22,16.46-3.42,2.13-6.89,4.21-10.4,6.29-19.1,11.24-35.88,24.14-55.3,40.14-20.67,17.11-38.66,41.29-46.84,63.12C.13,169.79-1.59,188.65,1.42,212.42c4.72,36.07,7.95,70.14,9.8,104.08l2.36,44.2c2.08,37.68,4.9,71.53,18.31,102.88,4.35,10.22,8.37,19.33,13.41,27.6,20.85,34.03,50.59,65.06,77.59,80.92l2.64,1.62c6.24,3.61,12.07,7.07,19.37,9.48l21.78,6.94c10.68,3.56,50.03,5.13,60.48,5.13l29.22-.14c22.98-.05,47.58-.42,73.29-4.35,60.8-9.16,116.01-38.52,159.8-84.8,21.59-22.8,47.53-55.3,64.55-80.87l1.16-1.66c7.68-11.56,15.72-23.54,18.87-37.82,8.32-37.18-1.8-61.59-13.5-89.84ZM155.07,383.64l-.05-.05h.05v.05Z"/>
  <path class="uuid-76f3b813-acc6-4dc9-a915-e36cc6ee10d7" d="M155.07,383.6v.05l-.05-.05h.05Z"/>
  <path class="uuid-76f3b813-acc6-4dc9-a915-e36cc6ee10d7" d="M155.07,383.6v.05l-.05-.05h.05Z"/>
</svg>